<svg width="140" height="140" viewBox="0 0 140 140" fill="none" xmlns="http://www.w3.org/2000/svg">
<g opacity="0.4" clip-path="url(#clip0_3_3267)">
<path d="M37.9167 17.5C29.4076 17.5 21.2471 20.8802 15.2303 26.897C9.21353 32.9138 5.83333 41.0743 5.83333 49.5833C5.83333 62.6733 12.6467 75.3317 22.8142 77.7758C26.74 78.7208 29.8608 83.755 29.19 89.5008C28.2917 97.1892 21.3383 104.959 7.56584 111.084C4.4975 112.449 5.78084 117.063 9.11166 116.643C45.0042 112.152 69.8833 88.7542 70 55.65C70 32.8825 56.5483 17.5 37.9167 17.5ZM107.917 17.5C99.4076 17.5 91.2471 20.8802 85.2303 26.897C79.2135 32.9138 75.8333 41.0743 75.8333 49.5833C75.8333 62.6733 82.6467 75.3317 92.8142 77.7758C96.74 78.7208 99.8608 83.755 99.19 89.5008C98.2917 97.1892 91.3383 104.959 77.5658 111.084C74.4975 112.449 75.7808 117.063 79.1117 116.643C115.004 112.152 139.883 88.7542 140 55.65C140 32.8825 126.548 17.5 107.917 17.5Z" fill="#EC5E8F"/>
<path d="M37.9167 17.5C29.4076 17.5 21.2471 20.8802 15.2303 26.897C9.21353 32.9138 5.83333 41.0743 5.83333 49.5833C5.83333 62.6733 12.6467 75.3317 22.8142 77.7758C26.74 78.7208 29.8608 83.755 29.19 89.5008C28.2917 97.1892 21.3383 104.959 7.56584 111.084C4.4975 112.449 5.78084 117.063 9.11166 116.643C45.0042 112.152 69.8833 88.7542 70 55.65C70 32.8825 56.5483 17.5 37.9167 17.5ZM107.917 17.5C99.4076 17.5 91.2471 20.8802 85.2303 26.897C79.2135 32.9138 75.8333 41.0743 75.8333 49.5833C75.8333 62.6733 82.6467 75.3317 92.8142 77.7758C96.74 78.7208 99.8608 83.755 99.19 89.5008C98.2917 97.1892 91.3383 104.959 77.5658 111.084C74.4975 112.449 75.7808 117.063 79.1117 116.643C115.004 112.152 139.883 88.7542 140 55.65C140 32.8825 126.548 17.5 107.917 17.5Z" fill="#EC5E8F"/>
</g>
<defs>
<clipPath id="clip0_3_3267">
<rect width="140" height="140" fill="white" transform="matrix(-1 0 0 1 140 0)"/>
</clipPath>
</defs>
</svg>
