<svg width="140" height="140" viewBox="0 0 140 140" fill="none" xmlns="http://www.w3.org/2000/svg">
<g opacity="0.4" clip-path="url(#clip0_3_3263)">
<path d="M102.083 17.5C110.592 17.5 118.753 20.8802 124.77 26.897C130.786 32.9138 134.167 41.0743 134.167 49.5833C134.167 62.6733 127.353 75.3317 117.186 77.7758C113.26 78.7208 110.139 83.755 110.81 89.5008C111.708 97.1892 118.662 104.959 132.434 111.084C135.503 112.449 134.219 117.063 130.888 116.643C94.9958 112.152 70.1167 88.7542 70 55.65C70 32.8825 83.4517 17.5 102.083 17.5ZM32.0833 17.5C40.5924 17.5 48.7529 20.8802 54.7697 26.897C60.7865 32.9138 64.1667 41.0743 64.1667 49.5833C64.1667 62.6733 57.3533 75.3317 47.1858 77.7758C43.26 78.7208 40.1392 83.755 40.81 89.5008C41.7083 97.1892 48.6617 104.959 62.4342 111.084C65.5025 112.449 64.2192 117.063 60.8883 116.643C24.9958 112.152 0.116667 88.7542 0 55.65C0 32.8825 13.4517 17.5 32.0833 17.5Z" fill="#EC5E8F"/>
</g>
<defs>
<clipPath id="clip0_3_3263">
<rect width="140" height="140" fill="white"/>
</clipPath>
</defs>
</svg>
