<svg width="74" height="78" viewBox="0 0 74 78" fill="none" xmlns="http://www.w3.org/2000/svg">
<path fill-rule="evenodd" clip-rule="evenodd" d="M27.7816 77.918C26.8227 77.918 25.9242 77.6434 25.0931 77.0924C20.0856 73.7733 19.437 60.9361 19.6054 56.701C19.7862 52.1203 18.6326 45.2469 16.0792 35.688C15.9571 35.234 16.2262 34.768 16.6816 34.6467C17.1352 34.5251 17.6012 34.795 17.7218 35.2489C20.3217 44.9751 21.4943 52.0144 21.3047 56.7686C21.1134 61.5827 22.0401 73.0275 26.0324 75.6748C27.1026 76.3818 28.3342 76.3907 29.8013 75.7014C33.0902 74.1526 34.0416 68.5398 34.6725 64.8252C34.7524 64.3494 34.8302 63.899 34.9046 63.4837C36.4304 55.1679 40.4083 52.2045 43.6227 52.2045C46.8392 52.2042 50.8168 55.1674 52.3408 63.4837C52.4173 63.8985 52.4932 64.3489 52.5747 64.8243C53.2055 68.5391 54.1571 74.1526 57.4458 75.7014C58.9132 76.3905 60.1445 76.3818 61.213 75.673C65.2074 73.0274 66.1338 61.5826 65.9424 56.7686C65.6698 49.8886 68.3629 39.3426 70.4114 32.0087C71.6075 27.7268 73.1225 19.897 69.839 15.5685C68.2832 13.518 65.7493 12.478 62.3081 12.4773C62.3085 12.4772 62.3063 12.4773 62.3063 12.4773C60.1005 12.4772 57.9296 13.3018 55.4151 14.2565C52.1374 15.5015 48.4247 16.9132 43.6227 16.8239C39.9601 16.8925 37.0185 16.0765 34.8656 15.359C34.4194 15.2104 34.1781 14.729 34.3269 14.2831C34.476 13.8373 34.9578 13.5963 35.4025 13.7451C37.43 14.4206 40.1939 15.1868 43.6067 15.1228C43.6177 15.1225 43.6297 15.1226 43.6403 15.1228C48.1181 15.2093 51.6745 13.8578 54.8108 12.6662C57.3698 11.6942 59.7883 10.776 62.3063 10.776C62.3064 10.776 62.3081 10.776 62.3081 10.776C66.3093 10.777 69.2985 12.0435 71.1945 14.5403C74.9231 19.454 73.3315 27.8807 72.0504 32.4664C70.0323 39.6898 67.3777 50.0611 67.6418 56.701C67.8104 60.936 67.1615 73.7717 62.1539 77.0924C60.5701 78.1412 58.7429 78.191 56.721 77.2394C52.6282 75.3132 51.5859 69.1727 50.8966 65.1087C50.8189 64.6412 50.7425 64.1986 50.668 63.7906C49.5678 57.7855 46.8016 53.9056 43.6227 53.9056C40.4457 53.9054 37.6795 57.7855 36.5791 63.7906C36.505 64.1987 36.4285 64.6418 36.3487 65.1098C35.6598 69.1732 34.6175 75.3133 30.526 77.2394C29.5658 77.6931 28.6478 77.9181 27.7816 77.918Z" fill="black"/>
<path fill-rule="evenodd" clip-rule="evenodd" d="M70.5529 35.5527C70.5118 35.5527 70.4711 35.5498 70.4303 35.5437C65.8268 34.8773 60.0979 33.0424 58.9409 28.0849C58.3828 25.689 57.8759 24.3801 57.3018 23.8402C56.8662 23.4313 56.3201 23.4213 55.1257 23.4378C54.311 23.4486 53.2971 23.4631 52.0514 23.2763C46.53 22.4481 43.6116 19.8354 43.833 15.9197C43.8596 15.4508 44.2565 15.0893 44.7314 15.1186C45.1992 15.145 45.5589 15.5468 45.5324 16.0159C45.3623 19.0177 47.641 20.8945 52.3048 21.594C53.4127 21.7601 54.3107 21.7479 55.1027 21.7369C56.3945 21.7183 57.5108 21.7036 58.4659 22.6C59.3237 23.4047 59.9402 24.8817 60.5976 27.6983C61.5867 31.9334 67.3347 33.3767 70.6731 33.8601C71.1394 33.9275 71.4616 34.359 71.3943 34.8239C71.3323 35.2473 70.9689 35.5527 70.5529 35.5527Z" fill="black"/>
<path fill-rule="evenodd" clip-rule="evenodd" d="M35.3273 66.878C35.2352 66.878 35.143 66.863 35.0509 66.8313C34.5798 66.6689 33.9788 66.5425 33.3409 66.4084C31.1813 65.954 28.2234 65.3321 27.2117 62.4393C26.6872 60.9385 25.3228 61.0425 22.4645 61.8424C21.8251 62.0211 21.2225 62.1901 20.6838 62.2749C20.2196 62.3481 19.7836 62.0309 19.711 61.567C19.6367 61.1029 19.9537 60.6678 20.418 60.5946C20.8595 60.525 21.4156 60.3691 22.0057 60.2042C23.1596 59.8813 24.4687 59.5166 25.663 59.5695C27.6353 59.6578 28.4662 60.8737 28.8189 61.8776C29.5135 63.8649 31.638 64.3116 33.6918 64.7436C34.3832 64.8889 35.0349 65.0264 35.6055 65.2233C36.0505 65.3765 36.2859 65.8608 36.1318 66.3049C36.0114 66.6569 35.68 66.8781 35.3273 66.878Z" fill="black"/>
<path fill-rule="evenodd" clip-rule="evenodd" d="M64.1151 17.4596H64.0462C63.5765 17.4596 63.1953 17.0788 63.1953 16.6091C63.1954 16.1393 63.5763 15.7585 64.0459 15.7585H64.1151C64.5848 15.7585 64.9655 16.1393 64.9655 16.6091C64.9656 17.0788 64.5845 17.4597 64.1151 17.4596Z" fill="black"/>
<path fill-rule="evenodd" clip-rule="evenodd" d="M68.9583 21.9078H68.8908C68.4192 21.9078 68.04 21.527 68.04 21.0573C68.04 20.5875 68.4192 20.2067 68.8905 20.2067L68.9583 20.2065C69.4295 20.2065 69.8084 20.5875 69.8084 21.0573C69.8086 21.5268 69.4293 21.9078 68.9583 21.9078Z" fill="black"/>
<path fill-rule="evenodd" clip-rule="evenodd" d="M56.8993 18.5467H56.8303C56.3606 18.5467 55.9795 18.1661 55.9795 17.6963C55.9795 17.2265 56.3605 16.8456 56.83 16.8456L56.8993 16.8456C57.3689 16.8456 57.7497 17.2266 57.7497 17.6963C57.7497 18.166 57.3687 18.5469 56.8993 18.5467Z" fill="black"/>
<path fill-rule="evenodd" clip-rule="evenodd" d="M62.8311 22.5996H62.7617C62.2925 22.5996 61.9111 22.2188 61.9111 21.7491C61.9113 21.2793 62.2921 20.8985 62.7617 20.8985L62.8311 20.8983C63.3007 20.8983 63.6814 21.2793 63.6814 21.7491C63.6815 22.2188 63.3004 22.5996 62.8311 22.5996Z" fill="black"/>
<path fill-rule="evenodd" clip-rule="evenodd" d="M67.2781 28.3329H67.2091C66.7394 28.3329 66.3584 27.9521 66.3584 27.4824C66.3587 27.0127 66.7393 26.6317 67.2089 26.6317H67.2781C67.7477 26.6317 68.1286 27.0127 68.1286 27.4824C68.1289 27.952 67.7476 28.333 67.2781 28.3329Z" fill="black"/>
<path fill-rule="evenodd" clip-rule="evenodd" d="M35.8789 41.0601C38.5171 43.2461 40.748 43.4533 41.4887 42.9016C42.0029 42.5195 41.7651 41.7217 41.5791 41.2801C41.1381 40.2399 40.7799 39.6205 40.4911 39.1225C39.7861 37.9072 39.5041 37.3134 39.5962 34.7867C39.6282 33.8606 39.2188 33.1856 38.4692 32.9341C37.626 32.6518 36.217 32.9269 35.0228 34.6329C33.0917 37.3923 32.9569 38.6386 35.8789 41.0601ZM40.4468 44.8652C38.9285 44.8652 36.9472 44.1546 34.7942 42.3702C34.7942 42.3703 34.7945 42.3702 34.7942 42.3702C30.9295 39.168 31.4027 36.8376 33.6282 33.6574C35.0548 31.6208 37.1651 30.7033 39.0097 31.3213C40.4807 31.8144 41.3558 33.1657 41.2956 34.848C41.2178 36.9855 41.4054 37.3091 41.9618 38.2697C42.258 38.7799 42.6635 39.4792 43.1455 40.6174C43.7834 42.1281 43.5442 43.4922 42.504 44.2664C41.9957 44.6448 41.292 44.8654 40.4468 44.8652Z" fill="black"/>
<path fill-rule="evenodd" clip-rule="evenodd" d="M54.7308 40.967C54.3605 40.967 53.9315 41.1724 53.4407 41.7818C52.7394 42.6559 52.4625 43.2024 52.5175 43.6093C52.5763 44.0516 53.0615 44.5955 53.999 45.2715C55.8592 46.6133 56.99 46.8133 57.2876 46.4166C57.9522 45.5287 57.1016 42.491 55.6025 41.327C55.3564 41.1368 55.0674 40.967 54.7308 40.967ZM56.8606 48.3142C55.9536 48.3142 54.7094 47.8813 53.003 46.6512C51.6298 45.6607 50.9599 44.7928 50.8306 43.8372C50.6765 42.6902 51.3569 41.6592 52.1153 40.7156C53.4319 39.0783 55.1258 38.8044 56.6444 39.9829C58.6504 41.5392 60.0342 45.5846 58.6485 47.4358C58.2927 47.9133 57.7324 48.3142 56.8606 48.3142Z" fill="black"/>
<path fill-rule="evenodd" clip-rule="evenodd" d="M18.1823 1.70096C9.09567 1.70096 1.70101 9.09481 1.70101 18.1831C1.70112 27.2711 9.09547 34.6651 18.1821 34.6651C27.2709 34.6649 34.665 27.2713 34.665 18.1831C34.665 9.09476 27.2706 1.70106 18.1823 1.70096ZM18.1823 36.366C8.15635 36.366 0 28.2094 0 18.1831C0.000305407 8.1568 8.15629 2.38225e-10 18.1821 2.38225e-10C28.2098 -5.09009e-05 36.3661 8.1569 36.3661 18.1831C36.3663 28.2093 28.2097 36.3661 18.1823 36.366Z" fill="black"/>
<path fill-rule="evenodd" clip-rule="evenodd" d="M18.1821 10.5626C13.9807 10.5626 10.5625 13.9812 10.5625 18.1831C10.5627 22.385 13.9806 25.8036 18.1819 25.8036C22.3851 25.8036 25.8032 22.3851 25.8032 18.1831C25.8036 13.9811 22.385 10.5626 18.1821 10.5626ZM18.1821 27.5046C13.0434 27.5046 8.86133 23.3231 8.86133 18.1831C8.86143 13.043 13.0433 8.86145 18.1819 8.86145C23.3224 8.8613 27.5043 13.0431 27.5043 18.1831C27.5044 23.3229 23.3224 27.5047 18.1821 27.5046Z" fill="black"/>
<path fill-rule="evenodd" clip-rule="evenodd" d="M18.182 10.5626C17.7123 10.5626 17.333 10.1819 17.333 9.71221L17.3332 5.2434C17.3332 4.77374 17.7123 4.39294 18.1818 4.39294C18.6532 4.39279 19.0324 4.77374 19.0324 5.24345V9.71216C19.0324 10.1818 18.6531 10.5627 18.182 10.5626Z" fill="black"/>
<path fill-rule="evenodd" clip-rule="evenodd" d="M24.1735 13.0439C23.9554 13.0439 23.7373 12.9609 23.5708 12.7947C23.2394 12.4624 23.2394 11.924 23.5708 11.592L26.732 8.43197C27.0636 8.09964 27.602 8.09969 27.9351 8.43197C28.2665 8.7639 28.2664 9.30253 27.9351 9.63481L24.7739 12.7947C24.6093 12.9609 24.3912 13.0439 24.1735 13.0439Z" fill="black"/>
<path fill-rule="evenodd" clip-rule="evenodd" d="M31.1234 19.0335H26.6544C26.1848 19.0335 25.8037 18.6528 25.8037 18.1831C25.8041 17.7133 26.1847 17.3325 26.6542 17.3325H31.1234C31.593 17.3325 31.9737 17.7133 31.9737 18.1831C31.9738 18.6528 31.5927 19.0336 31.1234 19.0335Z" fill="black"/>
<path fill-rule="evenodd" clip-rule="evenodd" d="M27.3328 28.1832C27.1146 28.1832 26.8967 28.1005 26.7319 27.9343L23.5711 24.7743C23.2394 24.4422 23.2394 23.9038 23.5708 23.5716C23.904 23.2393 24.4425 23.2393 24.7739 23.5716L27.9351 26.7314C28.2664 27.0638 28.2664 27.6023 27.9351 27.9343C27.7689 28.1005 27.5506 28.1834 27.3328 28.1832Z" fill="black"/>
<path fill-rule="evenodd" clip-rule="evenodd" d="M18.182 31.9734C17.7123 31.9734 17.333 31.5927 17.333 31.123L17.3332 26.6539C17.3332 26.1842 17.7123 25.8037 18.1818 25.8037C18.6532 25.8037 19.0324 26.1843 19.0324 26.6541V31.1229C19.0324 31.5927 18.6531 31.9735 18.182 31.9734Z" fill="black"/>
<path fill-rule="evenodd" clip-rule="evenodd" d="M9.03358 28.1831C8.81593 28.1831 8.59761 28.1004 8.43107 27.9342C8.09985 27.6021 8.09975 27.0637 8.43107 26.7314L11.5924 23.5713C11.9237 23.2392 12.4623 23.2392 12.7955 23.5715C13.127 23.9036 13.1268 24.4422 12.7955 24.7742L9.63442 27.9342C9.46975 28.1004 9.25149 28.1833 9.03358 28.1831Z" fill="black"/>
<path fill-rule="evenodd" clip-rule="evenodd" d="M9.71241 19.0335H5.24349C4.77378 19.0335 4.39258 18.6528 4.39258 18.1831C4.39263 17.7133 4.77357 17.3325 5.24319 17.3325H9.71241C10.1817 17.3325 10.5627 17.7133 10.5627 18.1831C10.5629 18.6528 10.1817 19.0336 9.71241 19.0335Z" fill="black"/>
<path fill-rule="evenodd" clip-rule="evenodd" d="M12.1932 13.0439C11.9751 13.0439 11.7588 12.9609 11.5923 12.7947L8.43115 9.63461C8.09984 9.30248 8.09974 8.76405 8.43105 8.43197C8.76446 8.09964 9.30289 8.09969 9.63425 8.43197L12.7957 11.5918C13.127 11.9239 13.1268 12.4625 12.7955 12.7947C12.629 12.9609 12.4109 13.0439 12.1932 13.0439Z" fill="black"/>
<path fill-rule="evenodd" clip-rule="evenodd" d="M14.4505 18.5375C14.0039 18.5375 13.6405 18.9008 13.6405 19.3474C13.6407 19.7938 14.0037 20.1572 14.4503 20.1572C14.897 20.157 15.2601 19.7939 15.2601 19.3474C15.2602 18.9007 14.8968 18.5376 14.4505 18.5375ZM14.4505 21.858C13.065 21.858 11.9395 20.7318 11.9395 19.3474C11.9395 17.9628 13.0646 16.8367 14.4503 16.8367C15.8343 16.8365 16.9612 17.963 16.9612 19.3474C16.9615 20.7317 15.8342 21.8581 14.4505 21.858Z" fill="black"/>
<path fill-rule="evenodd" clip-rule="evenodd" d="M21.0795 20.134C20.633 20.134 20.2694 20.4974 20.2694 20.9439C20.2698 21.3901 20.6327 21.7537 21.0792 21.7537C21.5261 21.7536 21.889 21.3903 21.889 20.9439C21.8892 20.4973 21.5258 20.1341 21.0795 20.134ZM21.0795 23.4546C19.6937 23.4546 18.5684 22.3283 18.5684 20.9439C18.5686 19.5593 19.6936 18.433 21.0792 18.433C22.4634 18.4328 23.5884 19.5595 23.5884 20.9439C23.5885 22.3282 22.4632 23.4546 21.0795 23.4546Z" fill="black"/>
<path fill-rule="evenodd" clip-rule="evenodd" d="M19.1085 13.4533C18.662 13.4533 18.2987 13.8166 18.2987 14.2631C18.2988 14.7096 18.662 15.0728 19.1085 15.0728C19.5551 15.0728 19.9183 14.7097 19.9183 14.2631C19.9186 13.8165 19.5551 13.4533 19.1085 13.4533ZM19.1085 16.7737C17.723 16.7737 16.5977 15.6476 16.5977 14.2631C16.598 12.8785 17.7229 11.7522 19.1085 11.7522C20.4928 11.7522 21.6194 12.8787 21.6194 14.2631C21.6195 15.6475 20.4925 16.7738 19.1085 16.7737Z" fill="black"/>
</svg>
