<svg width="105" height="105" viewBox="0 0 105 105" fill="none" xmlns="http://www.w3.org/2000/svg">
<path d="M69.9634 49.7368L44.4319 32.7158C42.2213 31.2789 39.3477 32.8263 39.3477 35.4789V69.521C39.3477 72.1737 42.3319 73.721 44.4319 72.2842L69.9634 55.2632C71.9529 53.9368 71.9529 51.0632 69.9634 49.7368Z" fill="white"/>
<path d="M52.5 0C23.5421 0 0 23.5421 0 52.5C0 81.4579 23.5421 105 52.5 105C81.4579 105 105 81.4579 105 52.5C105 23.5421 81.4579 0 52.5 0ZM52.5 96.821C28.0737 96.821 8.17895 76.9263 8.17895 52.5C8.17895 28.0737 28.0737 8.17895 52.5 8.17895C76.9263 8.17895 96.821 28.0737 96.821 52.5C96.821 76.9263 76.9263 96.821 52.5 96.821Z" fill="white"/>
</svg>
