<svg width="178" height="171" viewBox="0 0 178 171" fill="none" xmlns="http://www.w3.org/2000/svg">
<path d="M69.6554 108.632C68.1186 105.823 67.0056 103.434 66.3165 101.465C65.727 99.4417 65.4464 97.5098 65.4748 95.6695C65.4484 93.7289 65.6984 91.7023 66.2248 89.5895C66.7512 87.4767 67.4616 84.8722 68.3559 81.7761C68.9718 79.3537 69.6151 76.9815 70.2858 74.6594C71.0013 72.1825 71.4901 69.7645 71.7523 67.4053C72.1141 64.9916 72.172 62.6138 71.9259 60.272C71.6799 57.9302 70.8983 55.5556 69.5811 53.1482C66.9466 48.3335 63.4117 45.1846 58.9763 43.7013C54.486 42.1178 49.7508 42.6885 44.7708 45.4135C39.6911 48.1929 36.3809 51.9593 34.8402 56.7124C33.3991 61.4111 33.6248 66.4359 35.5174 71.787L21.2479 77.6398C19.6948 73.1457 18.9366 68.8033 18.9731 64.6125C19.1092 60.3672 19.9954 56.4283 21.6316 52.7959C23.213 49.0632 25.4946 45.6642 28.4765 42.5988C31.4036 39.4332 34.9089 36.7331 38.9926 34.4986C43.0762 32.2642 47.1904 30.795 51.3351 30.0912C55.5245 29.2326 59.5452 29.2484 63.3972 30.1385C67.2939 30.8737 70.9223 32.5378 74.2824 35.1308C77.5876 37.6234 80.4202 41.0263 82.7803 45.3395C84.5915 48.6496 85.74 51.9313 86.2259 55.1845C86.7565 58.283 86.8562 61.4218 86.5249 64.6008C86.2384 67.625 85.6256 70.7626 84.6865 74.0135C83.6926 77.1641 82.6763 80.3921 81.6377 83.6976C80.8673 86.0741 80.286 88.0866 79.8937 89.735C79.601 91.3289 79.535 92.8639 79.6956 94.34C79.8562 95.8162 80.2486 97.3611 80.8726 98.9747C81.5414 100.433 82.4521 102.216 83.6047 104.323L87.3918 111.244L74.842 118.111L69.6554 108.632ZM88.0324 127.316C90.5224 125.953 93.108 125.712 95.7892 126.591C98.515 127.315 100.564 128.931 101.936 131.438C103.308 133.946 103.542 136.62 102.638 139.461C101.778 142.148 100.203 144.117 97.9117 145.371C95.6208 146.624 93.0627 146.916 90.2372 146.247C87.4565 145.422 85.38 143.756 84.0079 141.248C82.6358 138.741 82.3298 136.171 83.09 133.539C83.8949 130.753 85.5423 128.678 88.0324 127.316Z" fill="#DADADA"/>
<path d="M66.7403 109.34C65.2035 106.532 64.0906 104.143 63.4015 102.174C62.8119 100.151 62.5314 98.2187 62.5598 96.3784C62.5333 94.4378 62.7833 92.4111 63.3098 90.2983C63.8362 88.1855 64.5466 85.5811 65.4409 82.485C66.0567 80.0626 66.7001 77.6904 67.3708 75.3683C68.0863 72.8914 68.5751 70.4733 68.8373 68.1141C69.199 65.7004 69.2569 63.3227 69.0109 60.9809C68.7649 58.639 67.9833 56.2645 66.666 53.8571C64.0316 49.0424 60.4966 45.8934 56.0612 44.4102C51.571 42.8267 46.8358 43.3974 41.8557 46.1223C36.776 48.9018 33.4659 52.6681 31.9252 57.4213C30.4841 62.12 30.7098 67.1448 32.6024 72.4958L18.3329 78.3486C16.7798 73.8546 16.0215 69.5121 16.058 65.3213C16.1941 61.076 17.0803 57.1372 18.7166 53.5048C20.2979 49.772 22.5796 46.373 25.5615 43.3077C28.4885 40.142 31.9939 37.442 36.0775 35.2075C40.1612 32.973 44.2754 31.5039 48.42 30.8001C52.6094 29.9415 56.6301 29.9572 60.4821 30.8473C64.3788 31.5826 68.0072 33.2467 71.3673 35.8396C74.6726 38.3322 77.5052 41.7351 79.8653 46.0483C81.6765 49.3584 82.825 52.6401 83.3109 55.8934C83.8415 58.9919 83.9411 62.1306 83.6099 65.3097C83.3233 68.3339 82.7105 71.4715 81.7715 74.7224C80.7776 77.873 79.7613 81.101 78.7226 84.4064C77.9523 86.783 77.371 88.7955 76.9787 90.4439C76.686 92.0377 76.62 93.5727 76.7806 95.0489C76.9412 96.5251 77.3335 98.07 77.9576 99.6836C78.6264 101.142 79.5371 102.925 80.6897 105.031L84.4767 111.953L71.9269 118.819L66.7403 109.34ZM85.1173 128.025C87.6074 126.662 90.193 126.42 92.8741 127.299C95.6 128.024 97.649 129.64 99.0211 132.147C100.393 134.655 100.627 137.329 99.7226 140.17C98.8628 142.856 97.2875 144.826 94.9966 146.08C92.7058 147.333 90.1477 147.625 87.3222 146.955C84.5414 146.131 82.465 144.465 81.0929 141.957C79.7207 139.449 79.4148 136.88 80.1749 134.248C80.9798 131.462 82.6273 129.387 85.1173 128.025Z" fill="white"/>
<path d="M127.029 97.6479C127.075 95.6584 127.219 94.0265 127.46 92.7524C127.772 91.48 128.222 90.3529 128.809 89.3713C129.399 88.3185 130.163 87.3054 131.104 86.332C132.044 85.3585 133.236 84.1776 134.681 82.7893C135.765 81.677 136.849 80.6002 137.932 79.5589C139.088 78.4483 140.103 77.2988 140.977 76.1105C141.923 74.9239 142.693 73.6621 143.289 72.3252C143.885 70.9882 144.203 69.4671 144.242 67.7617C144.322 64.351 143.398 61.5569 141.472 59.3793C139.548 57.1306 136.822 55.9653 133.294 55.8833C129.695 55.7997 126.743 56.7975 124.435 58.8767C122.198 60.9576 120.757 63.7323 120.112 67.2009L110.612 65.9138C111.173 63.0119 112.115 60.4389 113.438 58.1946C114.832 55.952 116.534 54.1075 118.544 52.6612C120.556 51.1439 122.841 50.024 125.399 49.3014C127.959 48.5077 130.685 48.1445 133.578 48.2117C136.471 48.279 139.142 48.7676 141.592 49.6777C144.114 50.5183 146.273 51.7771 148.069 53.454C149.938 55.0615 151.373 57.0855 152.376 59.526C153.38 61.8955 153.846 64.6079 153.775 67.6633C153.72 70.0082 153.318 72.1316 152.568 74.0338C151.89 75.8665 150.968 77.5868 149.801 79.1949C148.706 80.7335 147.401 82.2317 145.884 83.6895C144.369 85.0762 142.819 86.4976 141.232 87.9537C140.078 88.9933 139.139 89.8957 138.416 90.6609C137.762 91.4278 137.25 92.2334 136.877 93.0779C136.504 93.9224 136.235 94.8759 136.069 95.9385C135.976 96.9316 135.911 98.1743 135.877 99.6665L135.763 104.569L126.873 104.363L127.029 97.6479ZM131.11 113.419C132.874 113.46 134.34 114.134 135.51 115.441C136.752 116.678 137.352 118.185 137.311 119.962C137.27 121.738 136.564 123.25 135.194 124.498C133.896 125.677 132.435 126.247 130.812 126.209C129.19 126.171 127.722 125.533 126.409 124.294C125.169 122.985 124.57 121.443 124.611 119.667C124.652 117.89 125.287 116.412 126.514 115.232C127.814 113.982 129.346 113.378 131.11 113.419Z" fill="#DADADA"/>
<path d="M128.972 97.1753C129.018 95.1857 129.162 93.5539 129.403 92.2798C129.715 91.0073 130.165 89.8803 130.753 88.8986C131.342 87.8459 132.107 86.8328 133.047 85.8593C133.987 84.8858 135.18 83.7049 136.624 82.3166C137.709 81.2043 138.793 80.1275 139.876 79.0863C141.031 77.9756 142.046 76.8262 142.921 75.6379C143.866 74.4512 144.637 73.1894 145.233 71.8525C145.828 70.5155 146.146 68.9944 146.186 67.2891C146.265 63.8784 145.342 61.0842 143.416 58.9066C141.491 56.658 138.765 55.4927 135.237 55.4107C131.639 55.3271 128.686 56.3248 126.379 58.4041C124.142 60.4849 122.701 63.2597 122.055 66.7283L112.555 65.4411C113.117 62.5393 114.059 59.9662 115.382 57.7219C116.775 55.4793 118.477 53.6348 120.487 52.1886C122.499 50.6713 124.784 49.5513 127.342 48.8287C129.902 48.0351 132.629 47.6719 135.521 47.7391C138.414 47.8063 141.085 48.2949 143.535 49.205C146.057 50.0457 148.216 51.3044 150.013 52.9814C151.881 54.5889 153.317 56.6129 154.319 59.0534C155.323 61.4228 155.789 64.1352 155.718 67.1907C155.664 69.5355 155.261 71.659 154.511 73.5611C153.833 75.3938 152.911 77.1142 151.744 78.7222C150.649 80.2609 149.344 81.7591 147.828 83.2168C146.313 84.6035 144.762 86.0249 143.175 87.481C142.021 88.5206 141.083 89.423 140.359 90.1883C139.706 90.9551 139.193 91.7608 138.82 92.6053C138.448 93.4497 138.178 94.4033 138.013 95.4658C137.919 96.459 137.855 97.7016 137.82 99.1938L137.706 104.097L128.816 103.89L128.972 97.1753ZM133.053 112.946C134.817 112.987 136.284 113.661 137.453 114.968C138.695 116.206 139.296 117.713 139.254 119.489C139.213 121.265 138.507 122.778 137.137 124.025C135.839 125.204 134.379 125.774 132.756 125.737C131.133 125.699 129.665 125.06 128.353 123.821C127.113 122.513 126.513 120.97 126.554 119.194C126.596 117.418 127.23 115.939 128.457 114.759C129.757 113.51 131.289 112.905 133.053 112.946Z" fill="white"/>
</svg>
