<svg width="194" height="190" viewBox="0 0 194 190" fill="none" xmlns="http://www.w3.org/2000/svg">
<path d="M67.4152 100.947C67.9831 97.796 68.6172 95.2381 69.3174 93.273C70.1294 91.328 71.1243 89.6484 72.3022 88.2341C73.5003 86.7073 74.9676 85.2871 76.7041 83.9736C78.4406 82.66 80.629 81.0793 83.2694 79.2315C85.2699 77.7331 87.2603 76.291 89.2406 74.9052C91.3529 73.427 93.2518 71.8522 94.9374 70.1809C96.7348 68.5297 98.2731 66.7157 99.5523 64.7388C100.832 62.7619 101.715 60.4231 102.201 57.7224C103.175 52.3211 102.401 47.6506 99.8812 43.7109C97.3813 39.6586 93.3379 37.1291 87.7511 36.1221C82.0525 35.0951 77.1112 35.9473 72.9272 38.6787C68.855 41.4302 65.875 45.4823 63.9873 50.8351L49.2071 46.4285C50.8208 41.9558 52.9578 38.1003 55.618 34.8619C58.39 31.6437 61.5532 29.1349 65.1078 27.3357C68.6826 25.424 72.5928 24.2117 76.8384 23.6989C81.1043 23.0736 85.5278 23.1737 90.109 23.9994C94.6902 24.8251 98.8145 26.2655 102.482 28.3207C106.281 30.2834 109.4 32.8207 111.839 35.9324C114.41 38.9518 116.188 42.5254 117.175 46.6535C118.182 50.6689 118.249 55.096 117.377 59.9347C116.708 63.6481 115.541 66.9232 113.876 69.7601C112.343 72.5046 110.449 75.0098 108.195 77.2757C106.073 79.4492 103.625 81.5061 100.853 83.4462C98.1009 85.2739 95.2828 87.1477 92.3987 89.0678C90.3067 90.4335 88.5904 91.6345 87.25 92.6709C86.0213 93.7275 85.0059 94.8806 84.2038 96.1302C83.4018 97.3799 82.7369 98.8285 82.2092 100.476C81.8135 102.031 81.4028 103.991 80.9769 106.354L79.5775 114.118L65.4987 111.581L67.4152 100.947ZM69.9827 127.028C72.7761 127.531 74.94 128.967 76.4745 131.335C78.141 133.61 78.7207 136.155 78.2137 138.968C77.7067 141.781 76.2091 144.009 73.7211 145.652C71.365 147.202 68.9021 147.746 66.3321 147.283C63.7622 146.82 61.5881 145.44 59.8099 143.145C58.1637 140.757 57.5941 138.156 58.1011 135.343C58.6081 132.53 59.9838 130.338 62.2281 128.767C64.6044 127.104 67.1893 126.524 69.9827 127.028Z" fill="#DADADA"/>
<path d="M64.7014 99.6679C65.2692 96.5172 65.9033 93.9592 66.6036 91.9942C67.4156 90.0492 68.4105 88.3696 69.5883 86.9553C70.7864 85.4285 72.2537 84.0083 73.9902 82.6947C75.7267 81.3812 77.9151 79.8005 80.5555 77.9527C82.556 76.4543 84.5464 75.0122 86.5267 73.6264C88.639 72.1482 90.5379 70.5734 92.2236 68.9021C94.0209 67.2509 95.5592 65.4369 96.8384 63.46C98.1177 61.483 99.0006 59.1443 99.4874 56.4436C100.461 51.0423 99.6875 46.3718 97.1673 42.4321C94.6674 38.3798 90.624 35.8503 85.0372 34.8433C79.3386 33.8163 74.3974 34.6685 70.2134 37.3999C66.1411 40.1514 63.1611 44.2035 61.2735 49.5563L46.4933 45.1497C48.1069 40.677 50.2439 36.8215 52.9041 33.5831C55.6761 30.3649 58.8394 27.8561 62.3939 26.0569C65.9687 24.1452 69.8789 22.9329 74.1245 22.4201C78.3904 21.7947 82.8139 21.8949 87.3951 22.7206C91.9763 23.5463 96.1006 24.9867 99.7681 27.0418C103.567 29.0046 106.687 31.5419 109.125 34.6536C111.696 37.673 113.475 41.2466 114.461 45.3746C115.468 49.3901 115.535 53.8172 114.663 58.6559C113.994 62.3693 112.827 65.6444 111.162 68.4813C109.629 71.2258 107.735 73.731 105.481 75.9969C103.359 78.1704 100.911 80.2273 98.1391 82.1674C95.387 83.9951 92.5689 85.8689 89.6848 87.789C87.5928 89.1547 85.8766 90.3557 84.5361 91.3921C83.3074 92.4487 82.292 93.6018 81.49 94.8514C80.6879 96.1011 80.023 97.5497 79.4954 99.1973C79.0997 100.753 78.6889 102.712 78.263 105.075L76.8636 112.839L62.7848 110.302L64.7014 99.6679ZM67.2688 125.749C70.0622 126.252 72.2262 127.688 73.7606 130.056C75.4271 132.331 76.0068 134.876 75.4998 137.689C74.9928 140.502 73.4953 142.73 71.0072 144.373C68.6512 145.923 66.1882 146.467 63.6182 146.004C61.0483 145.541 58.8742 144.161 57.096 141.866C55.4498 139.478 54.8802 136.877 55.3872 134.064C55.8943 131.251 57.2699 129.059 59.5142 127.488C61.8905 125.825 64.4754 125.246 67.2688 125.749Z" fill="white"/>
<path d="M118.962 128.431C120.247 126.911 121.384 125.732 122.372 124.892C123.414 124.098 124.472 123.503 125.545 123.108C126.665 122.659 127.896 122.351 129.24 122.184C130.583 122.017 132.252 121.846 134.248 121.673C135.791 121.489 137.31 121.331 138.807 121.201C140.404 121.062 141.915 120.805 143.342 120.43C144.823 120.1 146.215 119.602 147.519 118.936C148.822 118.27 150.025 117.285 151.126 115.983C153.33 113.379 154.366 110.624 154.235 107.72C154.149 104.762 152.76 102.143 150.066 99.8637C147.318 97.5388 144.393 96.4609 141.292 96.6299C138.245 96.8445 135.381 98.0989 132.7 100.393L126.115 93.4249C128.374 91.5194 130.724 90.1087 133.162 89.1929C135.655 88.3228 138.138 87.9562 140.611 88.0931C143.129 88.1758 145.611 88.7393 148.055 89.7835C150.546 90.7735 152.896 92.203 155.105 94.072C157.314 95.941 159.086 97.9989 160.42 100.245C161.855 102.483 162.745 104.819 163.09 107.252C163.534 109.677 163.38 112.153 162.628 114.682C161.921 117.156 160.581 119.56 158.606 121.893C157.091 123.684 155.445 125.084 153.667 126.093C151.988 127.093 150.19 127.853 148.272 128.371C146.454 128.881 144.497 129.227 142.401 129.409C140.352 129.537 138.252 129.67 136.103 129.806C134.552 129.891 133.255 130.003 132.211 130.144C131.221 130.331 130.316 130.636 129.496 131.059C128.675 131.482 127.867 132.055 127.071 132.778C126.374 133.492 125.544 134.419 124.58 135.558L121.412 139.302L114.623 133.558L118.962 128.431ZM112.233 143.267C113.58 144.407 114.298 145.852 114.388 147.604C114.577 149.347 114.098 150.896 112.951 152.253C111.803 153.609 110.304 154.343 108.454 154.453C106.704 154.555 105.209 154.082 103.97 153.034C102.731 151.985 101.989 150.567 101.746 148.778C101.603 146.981 102.105 145.404 103.252 144.047C104.4 142.691 105.822 141.939 107.519 141.792C109.315 141.635 110.886 142.127 112.233 143.267Z" fill="#DADADA"/>
<path d="M120.771 129.283C122.057 127.764 123.194 126.584 124.181 125.744C125.223 124.95 126.281 124.356 127.355 123.961C128.475 123.511 129.706 123.203 131.049 123.036C132.392 122.869 134.062 122.699 136.057 122.526C137.6 122.341 139.12 122.184 140.617 122.054C142.213 121.915 143.725 121.658 145.152 121.283C146.633 120.953 148.025 120.455 149.328 119.788C150.632 119.122 151.834 118.138 152.936 116.836C155.14 114.231 156.176 111.477 156.044 108.573C155.959 105.614 154.569 102.995 151.875 100.716C149.128 98.3913 146.203 97.3134 143.102 97.4824C140.054 97.6971 137.19 98.9514 134.51 101.245L127.925 94.2774C130.184 92.3719 132.533 90.9612 134.972 90.0455C137.465 89.1753 139.948 88.8087 142.42 88.9457C144.939 89.0284 147.42 89.5918 149.865 90.6361C152.355 91.626 154.705 93.0555 156.914 94.9245C159.123 96.7936 160.895 98.8514 162.23 101.098C163.665 103.336 164.554 105.672 164.899 108.105C165.344 110.529 165.19 113.006 164.437 115.534C163.731 118.009 162.39 120.413 160.416 122.746C158.901 124.536 157.254 125.936 155.476 126.945C153.798 127.946 151.999 128.705 150.081 129.224C148.263 129.734 146.306 130.08 144.211 130.262C142.161 130.39 140.062 130.522 137.912 130.659C136.362 130.743 135.064 130.856 134.021 130.997C133.031 131.184 132.126 131.488 131.305 131.912C130.485 132.335 129.677 132.908 128.88 133.63C128.184 134.345 127.353 135.271 126.389 136.411L123.222 140.155L116.433 134.411L120.771 129.283ZM114.043 144.119C115.39 145.259 116.108 146.705 116.198 148.456C116.387 150.199 115.908 151.749 114.76 153.105C113.612 154.462 112.113 155.195 110.263 155.306C108.513 155.408 107.018 154.935 105.779 153.886C104.54 152.838 103.799 151.419 103.556 149.631C103.412 147.833 103.914 146.257 105.062 144.9C106.21 143.544 107.632 142.792 109.328 142.644C111.124 142.488 112.696 142.98 114.043 144.119Z" fill="white"/>
</svg>
